<svg xmlns="http://www.w3.org/2000/svg" viewBox="0 0 512 512" role="img" aria-label="Pocket Stylist">
  <defs>
    <linearGradient id="bg" x1="0" y1="0" x2="1" y2="1">
      <stop offset="0" stop-color="#171b27"/>
      <stop offset="1" stop-color="#29233d"/>
    </linearGradient>
    <linearGradient id="gold" x1="0" y1="0" x2="1" y2="1">
      <stop offset="0" stop-color="#f1d49b"/>
      <stop offset="1" stop-color="#b8893f"/>
    </linearGradient>
  </defs>
  <rect width="512" height="512" fill="url(#bg)"/>
  <path d="M256 106c-30 0-54 23-54 52h32c0-11 10-21 22-21s22 10 22 21c0 12-9 18-22 27-13 9-29 20-29 43v12h31v-9c0-7 6-12 19-21 18-12 33-27 33-52 0-29-24-52-54-52Z" fill="url(#gold)"/>
  <path d="M256 221 106 340c-15 12-7 37 12 37h276c19 0 27-25 12-37L256 221Z" fill="none" stroke="url(#gold)" stroke-width="30" stroke-linejoin="round"/>
  <circle cx="390" cy="122" r="14" fill="#8fd5c8"/>
  <path d="M390 84v76M352 122h76" stroke="#8fd5c8" stroke-width="10" stroke-linecap="round"/>
</svg>
